<svg role="img" viewBox="0 0 48 48" xmlns="http://www.w3.org/2000/svg" id="Clerk--Streamline-Simple-Icons" height="48" width="48"><desc>Clerk Streamline Icon: https://streamlinehq.com</desc><title>Clerk</title><path d="m42.94 41.658 -5.762 -5.762a1.144 1.144 0 0 0 -1.4 -0.168 13.708 13.708 0 0 1 -14.162 0 1.152 1.152 0 0 0 -1.4 0.168l-5.762 5.762a1.152 1.152 0 0 0 -0.206 1.38 1.14 1.14 0 0 0 0.332 0.372 24 24 0 0 0 28.226 0 1.16 1.16 0 0 0 0.478 -0.846 1.152 1.152 0 0 0 -0.344 -0.906Zm0.004 -35.336 -5.76 5.76a1.138 1.138 0 0 1 -1.402 0.168A13.714 13.714 0 0 0 17.448 16.16a13.724 13.724 0 0 0 -2.444 7.384 13.72 13.72 0 0 0 1.956 7.528 1.146 1.146 0 0 1 -0.166 1.398l-5.762 5.76a1.134 1.134 0 0 1 -1.728 -0.126A23.986 23.986 0 0 1 13.542 5.4a23.98 23.98 0 0 1 29.274 -0.81 1.132 1.132 0 0 1 0.464 0.836 1.14 1.14 0 0 1 -0.336 0.896Zm-14.236 24.522a6.854 6.854 0 1 0 0 -13.708 6.854 6.854 0 0 0 0 13.708Z" fill="#482cd0" stroke-width="2"></path></svg>